<svg xmlns="http://www.w3.org/2000/svg" shape-rendering="geometricPrecision" text-rendering="geometricPrecision" image-rendering="optimizeQuality" fill-rule="evenodd" clip-rule="evenodd" viewBox="0 0 512 331.17"><path fill-rule="nonzero" d="M34.88 0h442.24c9.56 0 18.28 3.93 24.59 10.24C508.07 16.55 512 25.29 512 34.88V296.3c0 9.57-3.94 18.31-10.25 24.62l-.68.62c-6.26 5.95-14.71 9.63-23.95 9.63H34.88c-9.55 0-18.28-3.93-24.61-10.26C3.93 314.62 0 305.9 0 296.3V34.88c0-9.56 3.93-18.27 10.24-24.6l.04-.04C16.63 3.92 25.33 0 34.88 0zm232.89 113.65c-4.68 0-8.48-5.06-8.48-11.3 0-6.25 3.8-11.31 8.48-11.31h120.41c4.68 0 8.48 5.06 8.48 11.31 0 6.24-3.8 11.3-8.48 11.3H267.77zm0 121.96c-4.68 0-8.48-5.06-8.48-11.3 0-6.24 3.8-11.31 8.48-11.31h179.5c4.68 0 8.48 5.07 8.48 11.31s-3.8 11.3-8.48 11.3h-179.5zm0-60.98c-4.68 0-8.48-5.06-8.48-11.3 0-6.24 3.8-11.3 8.48-11.3h167.88c4.68 0 8.48 5.06 8.48 11.3 0 6.24-3.8 11.3-8.48 11.3H267.77zm-93.21 19.9c9.47 8.16 27.48 5.71 37.6 11.36 3.22 1.8 6.14 4.09 8.48 7.18 5.8 7.66 6.25 10.46 8.46 19.81-.52 5.51-3.65 8.69-9.8 9.16H78.13c-6.15-.47-9.28-3.65-9.8-9.16 2.21-9.35 2.66-12.15 8.47-19.81 2.34-3.1 5.25-5.38 8.47-7.18 9.96-5.55 27.26-3.14 37.13-10.97 1.49-3.23 3-7.81 3.95-10.7l.4-1.19c1.1-3.29-5.4-9.72-7.58-13.18l-8.08-12.84c-2.95-4.41-4.49-8.44-4.58-11.74-.05-1.56.22-2.97.79-4.2.6-1.3 1.53-2.39 2.78-3.23.58-.39 1.24-.72 1.96-1-.53-6.96-.72-12.26-.38-19.61.17-1.74.5-3.49.99-5.23 2.96-10.57 12.04-18.18 22.42-21.76 5.03-1.74 3.09-5.89 8.17-5.61 12.06.66 30.67 8.43 37.81 16.67 10.02 11.55 7.43 22.28 7.1 36.38v-.01c2.24.68 3.67 2.1 4.26 4.41.65 2.54-.05 6.14-2.21 11.03h-.01c-.04.09-.08.18-.14.26l-9.2 15.16c-3.55 5.85-7.15 11.71-11.96 16.21-.23.22-.47.43-.71.64.7.97 1.51 2.16 2.38 3.44 1.25 1.84 2.63 3.86 4 5.71zM477.12 20.34H34.88c-4.01 0-7.65 1.63-10.26 4.24l-.04.04a14.488 14.488 0 0 0-4.24 10.26V296.3c0 3.97 1.65 7.61 4.29 10.25a14.31 14.31 0 0 0 10.25 4.28h442.24c3.78 0 7.25-1.47 9.85-3.87l.4-.42c2.64-2.64 4.29-6.28 4.29-10.24V34.88c0-3.98-1.65-7.62-4.29-10.26a14.392 14.392 0 0 0-10.25-4.28z"/></svg>